<mxfile host="app.diagrams.net" agent="Mozilla/5.0 (Macintosh; Intel Mac OS X 10_15_7) AppleWebKit/537.36 (KHTML, like Gecko) Chrome/138.0.0.0 Safari/537.36" version="27.2.0">
  <diagram name="Media Push Platform Architecture" id="S9Ucao7WEjvw5nLi_nJ7">
    <mxGraphModel dx="1198" dy="771" grid="1" gridSize="10" guides="1" tooltips="1" connect="1" arrows="1" fold="1" page="1" pageScale="1" pageWidth="827" pageHeight="1169" math="0" shadow="0">
      <root>
        <mxCell id="0" />
        <mxCell id="1" parent="0" />
        <mxCell id="JE-I6MDOpZwc3gtiOpwK-65" value="" style="rounded=0;whiteSpace=wrap;html=1;fillColor=#dae8fc;strokeColor=#6c8ebf;" vertex="1" parent="1">
          <mxGeometry x="414" y="260" width="200" height="270" as="geometry" />
        </mxCell>
        <mxCell id="JE-I6MDOpZwc3gtiOpwK-64" value="" style="rounded=0;whiteSpace=wrap;html=1;fillColor=#dae8fc;strokeColor=#6c8ebf;" vertex="1" parent="1">
          <mxGeometry x="110" y="260" width="200" height="270" as="geometry" />
        </mxCell>
        <mxCell id="JE-I6MDOpZwc3gtiOpwK-36" value="DMP 平台" style="rounded=1;whiteSpace=wrap;html=1;fillColor=#d5e8d4;strokeColor=#82b366;" vertex="1" parent="1">
          <mxGeometry x="150" y="290" width="120" height="60" as="geometry" />
        </mxCell>
        <mxCell id="JE-I6MDOpZwc3gtiOpwK-37" value="SMC 平台" style="rounded=1;whiteSpace=wrap;html=1;fillColor=#d5e8d4;strokeColor=#82b366;" vertex="1" parent="1">
          <mxGeometry x="150" y="420" width="120" height="60" as="geometry" />
        </mxCell>
        <mxCell id="JE-I6MDOpZwc3gtiOpwK-38" value="人群包接收服务" style="rounded=1;whiteSpace=wrap;html=1;fillColor=#fff2cc;strokeColor=#d6b656;" vertex="1" parent="1">
          <mxGeometry x="444" y="310" width="140" height="60" as="geometry" />
        </mxCell>
        <mxCell id="JE-I6MDOpZwc3gtiOpwK-39" value="火山云对象存储 (OBS)&lt;br&gt;(存储人群包文件)" style="shape=cloud;whiteSpace=wrap;html=1;fillColor=#f5f5f5;strokeColor=#666666;" vertex="1" parent="1">
          <mxGeometry x="424" y="415" width="180" height="100" as="geometry" />
        </mxCell>
        <mxCell id="JE-I6MDOpZwc3gtiOpwK-40" value="MySQL&lt;br&gt;(任务、状态、授权信息)" style="shape=cylinder3;whiteSpace=wrap;html=1;boundedLbl=1;backgroundOutline=1;size=15;fillColor=#f5f5f5;strokeColor=#666666;" vertex="1" parent="1">
          <mxGeometry x="730" y="820" width="160" height="110" as="geometry" />
        </mxCell>
        <mxCell id="JE-I6MDOpZwc3gtiOpwK-41" value="Web 应用 / API 接口&lt;br&gt;(Java + Spring Boot)" style="rounded=1;whiteSpace=wrap;html=1;fillColor=#f8cecc;strokeColor=#b85450;" vertex="1" parent="1">
          <mxGeometry x="740" y="220" width="140" height="60" as="geometry" />
        </mxCell>
        <mxCell id="JE-I6MDOpZwc3gtiOpwK-42" value="授权管理服务&lt;br&gt;(Token/Refresh/Cookie 管理)" style="rhombus;whiteSpace=wrap;html=1;rounded=1;fillColor=#ffcccc;strokeColor=#b85450;fontStyle=1" vertex="1" parent="1">
          <mxGeometry x="730" y="415" width="160" height="120" as="geometry" />
        </mxCell>
        <mxCell id="JE-I6MDOpZwc3gtiOpwK-43" value="推送执行引擎" style="rhombus;whiteSpace=wrap;html=1;rounded=1;fillColor=#dae8fc;strokeColor=#6c8ebf;fontStyle=1" vertex="1" parent="1">
          <mxGeometry x="730" y="660" width="160" height="120" as="geometry" />
        </mxCell>
        <mxCell id="JE-I6MDOpZwc3gtiOpwK-44" value="OAuth 2.0 处理器" style="rounded=1;whiteSpace=wrap;html=1;fillColor=#e6d0de;strokeColor=#996185;" vertex="1" parent="1">
          <mxGeometry x="1070" y="295" width="140" height="70" as="geometry" />
        </mxCell>
        <mxCell id="JE-I6MDOpZwc3gtiOpwK-45" value="&lt;b&gt;支持平台&lt;/b&gt;&lt;br&gt;百度观星盘&lt;br&gt;巨量引擎&lt;br&gt;快手磁力引擎&lt;br&gt;腾讯社交广告" style="rounded=1;whiteSpace=wrap;html=1;align=center;verticalAlign=middle;fillColor=#ffe6cc;strokeColor=#d79b00;" vertex="1" parent="1">
          <mxGeometry x="1380" y="260" width="180" height="140" as="geometry" />
        </mxCell>
        <mxCell id="JE-I6MDOpZwc3gtiOpwK-46" value="API Key 处理器" style="rounded=1;whiteSpace=wrap;html=1;fillColor=#e6d0de;strokeColor=#996185;" vertex="1" parent="1">
          <mxGeometry x="1070" y="415" width="140" height="70" as="geometry" />
        </mxCell>
        <mxCell id="JE-I6MDOpZwc3gtiOpwK-47" value="&lt;b&gt;支持平台&lt;/b&gt;&lt;br&gt;小红书聚光&lt;br&gt;微博广告&lt;br&gt;华为 DMP" style="rounded=1;whiteSpace=wrap;html=1;align=center;verticalAlign=middle;fillColor=#ffe6cc;strokeColor=#d79b00;" vertex="1" parent="1">
          <mxGeometry x="1380" y="420" width="180" height="100" as="geometry" />
        </mxCell>
        <mxCell id="JE-I6MDOpZwc3gtiOpwK-48" value="自动化推送执行器&lt;br&gt;(Python + ChromeDriver)" style="rounded=1;whiteSpace=wrap;html=1;fillColor=#e6d0de;strokeColor=#996185;" vertex="1" parent="1">
          <mxGeometry x="1070" y="570" width="140" height="70" as="geometry" />
        </mxCell>
        <mxCell id="JE-I6MDOpZwc3gtiOpwK-49" value="&lt;b&gt;支持平台&lt;/b&gt;&lt;br&gt;京东数坊/Databank&lt;br&gt;小红书灵犀" style="rounded=1;whiteSpace=wrap;html=1;align=center;verticalAlign=middle;fillColor=#ffe6cc;strokeColor=#d79b00;" vertex="1" parent="1">
          <mxGeometry x="1380" y="545" width="180" height="100" as="geometry" />
        </mxCell>
        <mxCell id="JE-I6MDOpZwc3gtiOpwK-54" value="管理授权" style="edgeStyle=orthogonalEdgeStyle;rounded=0;orthogonalLoop=1;jettySize=auto;html=1;" edge="1" parent="1" source="JE-I6MDOpZwc3gtiOpwK-41" target="JE-I6MDOpZwc3gtiOpwK-42">
          <mxGeometry relative="1" as="geometry" />
        </mxCell>
        <mxCell id="JE-I6MDOpZwc3gtiOpwK-55" value="调用认证接口" style="edgeStyle=orthogonalEdgeStyle;rounded=0;orthogonalLoop=1;jettySize=auto;html=1;" edge="1" parent="1" source="JE-I6MDOpZwc3gtiOpwK-42" target="JE-I6MDOpZwc3gtiOpwK-44">
          <mxGeometry relative="1" as="geometry" />
        </mxCell>
        <mxCell id="JE-I6MDOpZwc3gtiOpwK-56" value="获取 Token" style="edgeStyle=orthogonalEdgeStyle;rounded=0;orthogonalLoop=1;jettySize=auto;html=1;" edge="1" parent="1" source="JE-I6MDOpZwc3gtiOpwK-42" target="JE-I6MDOpZwc3gtiOpwK-46">
          <mxGeometry relative="1" as="geometry" />
        </mxCell>
        <mxCell id="JE-I6MDOpZwc3gtiOpwK-59" value="推送人群包" style="edgeStyle=orthogonalEdgeStyle;rounded=0;orthogonalLoop=1;jettySize=auto;html=1;" edge="1" parent="1" source="JE-I6MDOpZwc3gtiOpwK-43" target="JE-I6MDOpZwc3gtiOpwK-46">
          <mxGeometry relative="1" as="geometry" />
        </mxCell>
        <mxCell id="JE-I6MDOpZwc3gtiOpwK-60" value="调用 Python 脚本" style="edgeStyle=orthogonalEdgeStyle;rounded=0;orthogonalLoop=1;jettySize=auto;html=1;" edge="1" parent="1" source="JE-I6MDOpZwc3gtiOpwK-43" target="JE-I6MDOpZwc3gtiOpwK-48">
          <mxGeometry relative="1" as="geometry" />
        </mxCell>
        <mxCell id="JE-I6MDOpZwc3gtiOpwK-63" value="模拟登录+上传" style="edgeStyle=orthogonalEdgeStyle;rounded=0;orthogonalLoop=1;jettySize=auto;html=1;" edge="1" parent="1" source="JE-I6MDOpZwc3gtiOpwK-48" target="JE-I6MDOpZwc3gtiOpwK-49">
          <mxGeometry relative="1" as="geometry" />
        </mxCell>
        <mxCell id="JE-I6MDOpZwc3gtiOpwK-68" value="" style="endArrow=classic;html=1;rounded=0;" edge="1" parent="1">
          <mxGeometry width="50" height="50" relative="1" as="geometry">
            <mxPoint x="320" y="390" as="sourcePoint" />
            <mxPoint x="400" y="390" as="targetPoint" />
          </mxGeometry>
        </mxCell>
        <mxCell id="JE-I6MDOpZwc3gtiOpwK-69" style="edgeStyle=orthogonalEdgeStyle;rounded=0;orthogonalLoop=1;jettySize=auto;html=1;exitX=1;exitY=0.5;exitDx=0;exitDy=0;entryX=-0.015;entryY=0.534;entryDx=0;entryDy=0;entryPerimeter=0;" edge="1" parent="1" source="JE-I6MDOpZwc3gtiOpwK-44" target="JE-I6MDOpZwc3gtiOpwK-45">
          <mxGeometry relative="1" as="geometry" />
        </mxCell>
        <mxCell id="JE-I6MDOpZwc3gtiOpwK-70" value="发送请求" style="edgeLabel;html=1;align=center;verticalAlign=middle;resizable=0;points=[];" vertex="1" connectable="0" parent="JE-I6MDOpZwc3gtiOpwK-69">
          <mxGeometry x="-0.103" y="-1" relative="1" as="geometry">
            <mxPoint x="1" as="offset" />
          </mxGeometry>
        </mxCell>
        <mxCell id="JE-I6MDOpZwc3gtiOpwK-71" value="" style="image;aspect=fixed;perimeter=ellipsePerimeter;html=1;align=center;shadow=0;dashed=0;spacingTop=3;image=img/lib/active_directory/my_sites.svg;opacity=60;" vertex="1" parent="1">
          <mxGeometry x="630" y="350" width="127.78" height="115" as="geometry" />
        </mxCell>
      </root>
    </mxGraphModel>
  </diagram>
</mxfile>
